{"title":"The Rolling Stones - Doom And Gloom {M4A+MP4} (1080p) x264 [VX] ","uid":7982885,"size":50650361,"categoryP":"video","categoryS":"music_videos","magnet":"?xt=urn:btih:3a765bb2e8f57f3f11c2e53b9c56ceb67ad6c672&amp;dn=The+Rolling+Stones+-+Doom+And+Gloom+%7BM4A%2BMP4%7D+%281080p%29+x264+%5BVX%5D+&amp;tr=udp%3A%2F%2Ftracker.openbittorrent.com%3A80&amp;tr=udp%3A%2F%2Fopen.demonii.com%3A1337&amp;tr=udp%3A%2F%2Ftracker.coppersurfer.tk%3A6969&amp;tr=udp%3A%2F%2Fexodus.desync.com%3A6969","seeders":2,"leechers":0,"uploader":"Vitamin_X","files":-1,"time":1357221036,"description":"________________________  Visit us at _________________________\n        &lt;a href=&quot;\nhttp://p2pdl.com&quot; rel=&quot;nofollow&quot; target=&quot;_NEW&quot;&gt;\nhttp://p2pdl.com&lt;/a&gt;  ____________________________ &lt;a href=&quot; http://p2pdl.com&quot; rel=&quot;nofollow&quot; target=&quot;_NEW&quot;&gt; http://p2pdl.com&lt;/a&gt;\n\n\nThe Rolling Stones - Doom And Gloom {M4A+MP4} (1080p) x264 [VX] [P2PDL]\n &lt;a href=&quot;\nhttp://www.shotpix.com/images/40367136806342199620.jpg&quot; rel=&quot;nofollow&quot; target=&quot;_NEW&quot;&gt;\nhttp://www.shotpix.com/images/40367136806342199620.jpg&lt;/a&gt;\n\n\nRelease Title: The Rolling Stones - Doom And Gloom (2012)\n\n\n                          1080p Full HD MP4 Video\n                                   +\n                          128 Kbps/VBR M4A Audio\n\nGeneral\nComplete name                  : The Rolling Stones - Doom And Gloom (1080p) x264 [VX] [P2PDL].mp4\nFormat                         : MPEG-4\nFormat profile                 : Base Media / Version 2\nCodec ID                       : mp42\nFile size                      : 44.0 MiB\nDuration                       : 4mn 9s\n\nVideo\nID                             : 1\nFormat                         : AVC\nBit rate mode                  : Variable\nBit rate                       : 1 350 Kbps\nWidth                          : 1 920 pixels\nHeight                         : 1 080 pixels\nDisplay aspect ratio           : 16:9\nFrame rate mode                : Constant\nFrame rate                     : 25.000 fps\nColor space                    : YUV\nChroma subsampling             : 4:2:0\nBit depth                      : 8 bits\nScan type                      : Progressive\nBits/(Pixel*Frame)             : 0.026\nStream size                    : 40.1 MiB (91%)\nWriting library                : x264 core 128\n\nAudio\nID                             : 2\nFormat                         : AAC\nBit rate mode                  : Variable\nBit rate                       : 128 Kbps\nChannel(s)                     : 2 channels\nChannel positions              : Front: L R\nSampling rate                  : 48.0 KHz\nCompression mode               : Lossy\nStream size                    : 3.79 MiB (9%)\n\nSubtitles                      : No\n\nScreens:\n &lt;a href=&quot;\nhttp://www.shotpix.com/images/16846710846231837161.jpg&quot; rel=&quot;nofollow&quot; target=&quot;_NEW&quot;&gt;\nhttp://www.shotpix.com/images/16846710846231837161.jpg&lt;/a&gt; &lt;a href=&quot;\nhttp://www.shotpix.com/images/79094615638844180893.jpg&quot; rel=&quot;nofollow&quot; target=&quot;_NEW&quot;&gt;\nhttp://www.shotpix.com/images/79094615638844180893.jpg&lt;/a&gt;\n\nThumbs:\n &lt;a href=&quot;\nhttp://www.shotpix.com/images/13655527981437924935.jpg&quot; rel=&quot;nofollow&quot; target=&quot;_NEW&quot;&gt;\nhttp://www.shotpix.com/images/13655527981437924935.jpg&lt;/a&gt;\n\n------------------------------------------------------------------------\n\nNotes:\n\n* Recommended to use latest version VLC Media Player.\n* Install shark007 codecs in case of any kind of problem in playback (For non-VLC Media Player users).\n* Alternatively, install Core AVC codecs, the fastest decoder that there is coupled with Community Center Codec Pack and play on Windows Media Player Classic.\n\nGreets to: VYTO, a2zRG, stumpie1971, Sheychi, staff members at ExtraTorrent, TPB,KAT, 1337x, PublicHD, Ahashare, TorrentMafia, Limetorrents, BTScene, P2PDL, and all others\n\nEncoder Notes: Looking For Early Access To Anything You Can Provide DVDScr, R5, DVDRips, BluRay, Direct Audio, Early Music\nReleases, Seedboxes, Links, Dedicated Servers anything u can provide, Advance / Promo CDs/DVDs. If You Got anything to\noffer contact me at &quot;&lt;a class=&quot;__cf_email__&quot; href=&quot;/cdn-cgi/l/email-protection&quot; data-cfemail=&quot;76060411361e03051e5815191b&quot;&gt;[email&amp;#160;protected]&lt;/a&gt;&lt;script cf-hash='f9e31' type=&quot;text/javascript&quot;&gt;\n/* &lt;![CDATA[ */!function(){try{var t=&quot;currentScript&quot;in document?document.currentScript:function(){for(var t=document.getElementsByTagName(&quot;script&quot;),e=t.length;e--;)if(t[e].getAttribute(&quot;cf-hash&quot;))return t[e]}();if(t&amp;&amp;t.previousSibling){var e,r,n,i,c=t.previousSibling,a=c.getAttribute(&quot;data-cfemail&quot;);if(a){for(e=&quot;&quot;,r=parseInt(a.substr(0,2),16),n=2;a.length-n;n+=2)i=parseInt(a.substr(n,2),16)^r,e+=String.fromCharCode(i);e=document.createTextNode(e),c.parentNode.replaceChild(e,c)}}}catch(u){}}();/* ]]&gt; */&lt;/script&gt;&quot;\n\nFacebook Fan Page: www . facebook . com / p2pdl","torrent":{"xt":"urn:btih:3a765bb2e8f57f3f11c2e53b9c56ceb67ad6c672","amp;dn":"The+Rolling+Stones+-+Doom+And+Gloom+%7BM4A%2BMP4%7D+%281080p%29+x264+%5BVX%5D+","amp;tr":["udp%3A%2F%2Ftracker.openbittorrent.com%3A80","udp%3A%2F%2Fopen.demonii.com%3A1337","udp%3A%2F%2Ftracker.coppersurfer.tk%3A6969","udp%3A%2F%2Fexodus.desync.com%3A6969"],"infoHash":"3a765bb2e8f57f3f11c2e53b9c56ceb67ad6c672","infoHashBuffer":{"type":"Buffer","data":[58,118,91,178,232,245,127,63,17,194,229,59,156,86,206,182,122,214,198,114]},"announce":[],"urlList":[]}}